<svg width="60" height="46" viewBox="0 0 60 46" fill="none" xmlns="http://www.w3.org/2000/svg">
<path d="M54 0.666687H5.99996C4.58547 0.666687 3.22892 1.22859 2.22872 2.22878C1.22853 3.22898 0.666626 4.58553 0.666626 6.00002V40.6667C0.666626 42.0812 1.22853 43.4377 2.22872 44.4379C3.22892 45.4381 4.58547 46 5.99996 46H54C55.4144 46 56.771 45.4381 57.7712 44.4379C58.7714 43.4377 59.3333 42.0812 59.3333 40.6667V6.00002C59.3333 4.58553 58.7714 3.22898 57.7712 2.22878C56.771 1.22859 55.4144 0.666687 54 0.666687ZM5.99996 40.6667V6.00002H27.3333V40.6667H5.99996ZM54 40.6667H32.6666V6.00002H54V40.6667ZM35.3333 15.3334H51.3333V19.3334H35.3333V15.3334ZM35.3333 22H51.3333V26H35.3333V22ZM35.3333 28.6667H51.3333V32.6667H35.3333V28.6667Z" fill="white"/>
</svg>
